<?xml version="1.0" encoding="utf-8"?>
<!-- Generator: Adobe Illustrator 26.0.1, SVG Export Plug-In . SVG Version: 6.00 Build 0)  -->
<svg version="1.1" id="Layer_1" xmlns="http://www.w3.org/2000/svg" xmlns:xlink="http://www.w3.org/1999/xlink" x="0px" y="0px"
	 viewBox="0 0 1200 610" style="enable-background:new 0 0 1200 610;" xml:space="preserve">
<style type="text/css">
	.st0{fill:none;stroke:#81DF4C;stroke-width:3.3;stroke-linecap:round;stroke-linejoin:round;}
	.st1{fill:none;stroke:#00FF40;stroke-width:3.3;stroke-linecap:round;stroke-linejoin:round;}
	.st2{fill:none;stroke:#93E5A0;stroke-width:6.1;}
	.st3{fill:none;stroke:#93E5A0;stroke-width:3.3;stroke-linecap:round;stroke-linejoin:round;}
	.st4{opacity:0.55;fill:none;stroke:#00FF40;stroke-width:9.9;enable-background:new    ;}
	.st5{fill:none;stroke:#81DF4C;stroke-width:9.9;}
	.st6{fill:#00FF40;}
	.st7{opacity:9.000000e-02;fill:#FFFFFF;fill-opacity:0;stroke:url(#SVGID_1_);stroke-width:4;stroke-miterlimit:10;}
</style>
<desc>Created with Sketch.</desc>
<g id="Artboard-4-Copy-8">
	<g id="Group-2" transform="translate(-70.000000, -12.000000)">
		<polyline id="Stroke-5-Copy-2" class="st0" points="132.5,536.3 153.7,548.7 132.5,561.1 		"/>
		<path id="Stroke-7-Copy-5" class="st1" d="M222.2,117.8c10.2,8.6,10.2,24.5,0,33.1"/>
		<g id="Group-3" transform="translate(521.000000, 46.000000)">
			<path id="Stroke-21-Copy" class="st1" d="M25.1,12.6H0"/>
			<path id="Stroke-23-Copy" class="st1" d="M18.8,22.9L5.4,1.8"/>
			<path id="Stroke-25-Copy" class="st1" d="M5.4,22.9l13.4-21"/>
		</g>
		<path id="Stroke-27-Copy" class="st2" d="M284,405.8h25"/>
		<path id="Stroke-29-Copy" class="st2" d="M284,418.3h25"/>
		<path id="Stroke-7-Copy-3" class="st3" d="M1085.5,574.4c-12.5-10.6-12.5-30,0-40.6"/>
		<path id="Stroke-9-Copy-3" class="st4" d="M1240,317.1h38"/>
		<path id="Stroke-17-Copy-4" class="st5" d="M1178.2,88.6l-24,24"/>
		<path id="Stroke-19-Copy-4" class="st5" d="M1178.3,113l-24-24"/>
		<path id="Fill-31-Copy" class="st6" d="M906.5,222c0,1.2-1,2.2-2.2,2.2s-2.2-1-2.2-2.2c0-1.2,1-2.2,2.2-2.2S906.5,220.8,906.5,222
			"/>
		<path id="Fill-33-Copy" class="st6" d="M906.5,237.7c0,1.2-1,2.2-2.2,2.2s-2.2-1-2.2-2.2c0-1.2,1-2.2,2.2-2.2
			S906.5,236.5,906.5,237.7"/>
	</g>
</g>
<linearGradient id="SVGID_1_" gradientUnits="userSpaceOnUse" x1="289.6543" y1="643.8771" x2="289.6543" y2="638.0776" gradientTransform="matrix(62.8 0 0 -89.2 -18050.7988 57461.5898)">
	<stop  offset="0" style="stop-color:#A2CCFF"/>
	<stop  offset="1" style="stop-color:#B0FF46"/>
</linearGradient>
<path class="st7" d="M139.5,280.1l-4.5,6.4l4.5,6.4l4.5-6.4L139.5,280.1z"/>
</svg>
