<?xml version="1.0" encoding="utf-8"?>
<!-- Generator: Adobe Illustrator 26.0.1, SVG Export Plug-In . SVG Version: 6.00 Build 0)  -->
<svg version="1.1" id="Layer_1" xmlns="http://www.w3.org/2000/svg" xmlns:xlink="http://www.w3.org/1999/xlink" x="0px" y="0px"
	 viewBox="0 0 1080 1080" style="enable-background:new 0 0 1080 1080;" xml:space="preserve">
<style type="text/css">
	.st0{fill:#27292B;}
	.st1{fill:#FFFFFF;fill-opacity:0;stroke:url(#SVGID_1_);stroke-width:2;stroke-miterlimit:10;}
	
		.st2{fill:#FFFFFF;fill-opacity:0;stroke:url(#SVGID_00000009572151109941340760000010664963140315716002_);stroke-width:4;stroke-miterlimit:10;}
	
		.st3{fill:#FFFFFF;fill-opacity:0;stroke:url(#SVGID_00000072269328400775572800000006651881357388077757_);stroke-width:2;stroke-miterlimit:10;}
	
		.st4{fill:#FFFFFF;fill-opacity:0;stroke:url(#SVGID_00000094580460856674410370000018302637296952704703_);stroke-width:4;stroke-miterlimit:10;}
	
		.st5{fill:#FFFFFF;fill-opacity:0;stroke:url(#SVGID_00000044883815666912767720000014653219833114343823_);stroke-width:8;stroke-miterlimit:10;}
	
		.st6{fill:#FFFFFF;fill-opacity:0;stroke:url(#SVGID_00000155139763245661856920000000614302466182794677_);stroke-width:4;stroke-miterlimit:10;}
	.st7{fill:none;stroke:#81DF4C;stroke-width:6.8;}
	.st8{fill:none;stroke:#81DF4C;stroke-width:3.3;stroke-linecap:round;stroke-linejoin:round;}
	.st9{fill:none;stroke:#00FF40;stroke-width:3.3;stroke-linecap:round;stroke-linejoin:round;}
	.st10{fill:none;stroke:#93E5A0;stroke-width:6.1;}
	.st11{fill:none;stroke:#93E5A0;stroke-width:3.3;stroke-linecap:round;stroke-linejoin:round;}
	.st12{opacity:0.55;fill:none;stroke:#00FF40;stroke-width:9.9;enable-background:new    ;}
	.st13{fill:none;stroke:#81DF4C;stroke-width:9.9;}
	.st14{fill:#00FF40;}
	
		.st15{fill:#FFFFFF;fill-opacity:0;stroke:url(#SVGID_00000074401283304674880750000015374161165350614154_);stroke-width:2;stroke-miterlimit:10;}
	
		.st16{fill:#FFFFFF;fill-opacity:0;stroke:url(#SVGID_00000038375834094643772450000001646355427970696329_);stroke-width:2;stroke-miterlimit:10;}
	
		.st17{fill:#FFFFFF;fill-opacity:0;stroke:url(#SVGID_00000038402555852990810750000012617707294048056458_);stroke-width:2;stroke-miterlimit:10;}
</style>
<image style="display:none;overflow:visible;" width="1080" height="1080" xlink:href="pattern.jpg" >
</image>
<rect class="st0" width="1080" height="1080"/>
<g>
	<g>
		
			<linearGradient id="SVGID_1_" gradientUnits="userSpaceOnUse" x1="712.8699" y1="88.179" x2="712.8699" y2="84.2886" gradientTransform="matrix(81 0 0 70 -56831 -5591)">
			<stop  offset="0" style="stop-color:#28FF54"/>
			<stop  offset="1" style="stop-color:#88FF77"/>
		</linearGradient>
		<path class="st1" d="M886.1,511.5l27-45.8l26,45.8H886.1z"/>
		
			<linearGradient id="SVGID_00000007401446902708124090000012842931566654384012_" gradientUnits="userSpaceOnUse" x1="716.5457" y1="90.614" x2="716.5457" y2="86.0279" gradientTransform="matrix(80 0 0 80 -57052 -6942)">
			<stop  offset="0" style="stop-color:#28FF54"/>
			<stop  offset="1" style="stop-color:#88FF77"/>
		</linearGradient>
		
			<circle style="fill:#FFFFFF;fill-opacity:0;stroke:url(#SVGID_00000007401446902708124090000012842931566654384012_);stroke-width:4;stroke-miterlimit:10;" cx="271.7" cy="123.7" r="23.4"/>
		
			<linearGradient id="SVGID_00000178197762339950936460000006730823703908606086_" gradientUnits="userSpaceOnUse" x1="716.99" y1="87.6585" x2="716.99" y2="84.836" gradientTransform="matrix(83.73 0 0 41.87 -59910.3164 -2876.6746)">
			<stop  offset="0" style="stop-color:#28FF54"/>
			<stop  offset="1" style="stop-color:#88FF77"/>
		</linearGradient>
		
			<path style="fill:#FFFFFF;fill-opacity:0;stroke:url(#SVGID_00000178197762339950936460000006730823703908606086_);stroke-width:2;stroke-miterlimit:10;" d="
			M157.7,751.7H88.9c0-19,15.4-34.4,34.4-34.4S157.7,732.7,157.7,751.7z"/>
	</g>
	<g>
		
			<linearGradient id="SVGID_00000035493657811438093230000013081388847918402995_" gradientUnits="userSpaceOnUse" x1="716.985" y1="84.8314" x2="716.985" y2="91.4883" gradientTransform="matrix(62.8 0 0 89.2 -44871.9961 -7484.8145)">
			<stop  offset="0" style="stop-color:#A2CCFF"/>
			<stop  offset="1" style="stop-color:#B0FF46"/>
		</linearGradient>
		
			<path style="fill:#FFFFFF;fill-opacity:0;stroke:url(#SVGID_00000035493657811438093230000013081388847918402995_);stroke-width:4;stroke-miterlimit:10;" d="
			M154.7,334.4L123.3,379l31.4,44.6l31.4-44.6L154.7,334.4z"/>
		
			<linearGradient id="SVGID_00000114057158538813966730000006313390131983213246_" gradientUnits="userSpaceOnUse" x1="718.7666" y1="84.2568" x2="718.7666" y2="92.9168" gradientTransform="matrix(100 0 0 100 -71033 -8093)">
			<stop  offset="0" style="stop-color:#A2CCFF"/>
			<stop  offset="1" style="stop-color:#B0FF46"/>
		</linearGradient>
		
			<rect x="810.7" y="732.7" style="fill:#FFFFFF;fill-opacity:0;stroke:url(#SVGID_00000114057158538813966730000006313390131983213246_);stroke-width:8;stroke-miterlimit:10;" width="66" height="66"/>
		
			<linearGradient id="SVGID_00000164506617533401907800000004635952000928028837_" gradientUnits="userSpaceOnUse" x1="713.2794" y1="86.1055" x2="713.2794" y2="90.7813" gradientTransform="matrix(84.1001 0 0 72.8 -59154.1719 -6258.002)">
			<stop  offset="0" style="stop-color:#A2CCFF"/>
			<stop  offset="1" style="stop-color:#B0FF46"/>
		</linearGradient>
		
			<path style="fill:#FFFFFF;fill-opacity:0;stroke:url(#SVGID_00000164506617533401907800000004635952000928028837_);stroke-width:4;stroke-miterlimit:10;" d="
			M861,180.7l-14.3,24.6h-28.4l-14.2-24.6l14.2-24.6h28.4L861,180.7z"/>
	</g>
	<path id="Stroke-17-Copy-4" class="st7" d="M429,670.6l-17,17"/>
	<path id="Stroke-19-Copy-4" class="st7" d="M429.2,688l-17-17"/>
</g>
<g id="Artboard-4-Copy-8">
	<g id="Group-2" transform="translate(-70.000000, -12.000000)">
		<polyline id="Stroke-5-Copy-2" class="st8" points="637.2,752.9 658.4,765.3 637.2,777.7 		"/>
		<path id="Stroke-7-Copy-5" class="st9" d="M159.1,376.2c10.2,8.6,10.2,24.5,0,33.1"/>
		<g id="Group-3" transform="translate(521.000000, 46.000000)">
			<path id="Stroke-21-Copy" class="st9" d="M-38,270.9h-25.1"/>
			<path id="Stroke-23-Copy" class="st9" d="M-44.3,281.2l-13.4-21"/>
			<path id="Stroke-25-Copy" class="st9" d="M-57.7,281.2l13.4-21"/>
		</g>
		<path id="Stroke-27-Copy" class="st10" d="M220.9,664.2h25"/>
		<path id="Stroke-29-Copy" class="st10" d="M220.9,676.7h25"/>
		<path id="Stroke-7-Copy-3" class="st11" d="M1022.4,832.8c-12.5-10.6-12.5-30,0-40.6"/>
		<path id="Stroke-9-Copy-3" class="st12" d="M383.6,998.5h38"/>
		<path id="Stroke-17-Copy-4_00000163753954297788676740000012954566328246054061_" class="st13" d="M1115,347l-24,24"/>
		<path id="Stroke-19-Copy-4_00000027589573742123755400000017552999291173846673_" class="st13" d="M1115.2,371.4l-24-24"/>
		<path id="Fill-31-Copy" class="st14" d="M843.4,480.3c0,1.2-1,2.2-2.2,2.2c-1.2,0-2.2-1-2.2-2.2c0-1.2,1-2.2,2.2-2.2
			C842.4,478.2,843.4,479.2,843.4,480.3"/>
		<path id="Fill-33-Copy" class="st14" d="M843.4,496.1c0,1.2-1,2.2-2.2,2.2c-1.2,0-2.2-1-2.2-2.2s1-2.2,2.2-2.2
			C842.4,493.9,843.4,494.9,843.4,496.1"/>
	</g>
</g>
<g>
	
		<linearGradient id="SVGID_00000106124501736027932080000007129897207632331159_" gradientUnits="userSpaceOnUse" x1="465.81" y1="540" x2="507.1183" y2="540">
		<stop  offset="0" style="stop-color:#28FF54"/>
		<stop  offset="1" style="stop-color:#88FF77"/>
	</linearGradient>
	
		<polyline style="fill:#FFFFFF;fill-opacity:0;stroke:url(#SVGID_00000106124501736027932080000007129897207632331159_);stroke-width:2;stroke-miterlimit:10;" points="
		506.4,500.8 467.2,540 506.4,579.2 	"/>
	
		<linearGradient id="SVGID_00000051372813251362109180000016743172278799644052_" gradientUnits="userSpaceOnUse" x1="572.8817" y1="540" x2="614.19" y2="540">
		<stop  offset="0" style="stop-color:#28FF54"/>
		<stop  offset="1" style="stop-color:#88FF77"/>
	</linearGradient>
	
		<polyline style="fill:#FFFFFF;fill-opacity:0;stroke:url(#SVGID_00000051372813251362109180000016743172278799644052_);stroke-width:2;stroke-miterlimit:10;" points="
		573.6,579.2 612.8,540 573.6,500.8 	"/>
	
		<linearGradient id="SVGID_00000061455869642588746730000011596001588464141446_" gradientUnits="userSpaceOnUse" x1="516.6588" y1="540" x2="563.3412" y2="540">
		<stop  offset="0" style="stop-color:#28FF54"/>
		<stop  offset="1" style="stop-color:#88FF77"/>
	</linearGradient>
	
		<line style="fill:#FFFFFF;fill-opacity:0;stroke:url(#SVGID_00000061455869642588746730000011596001588464141446_);stroke-width:2;stroke-miterlimit:10;" x1="562.4" y1="472.8" x2="517.6" y2="607.2"/>
</g>
</svg>
